<svg version="1.1" xmlns="http://www.w3.org/2000/svg" xmlns:xlink="http://www.w3.org/1999/xlink" width="254.38597" height="254.38597" viewBox="0,0,254.38597,254.38597"><g transform="translate(-57.33918,-193.96705)"><g data-paper-data="{&quot;isPaintingLayer&quot;:true}" fill-rule="nonzero" stroke="none" stroke-linecap="butt" stroke-linejoin="miter" stroke-miterlimit="10" stroke-dasharray="" stroke-dashoffset="0" style="mix-blend-mode: normal"><path d="M57.33918,448.35302v-254.38597h254.38597v254.38597z" fill-opacity="0.25882" fill="#ffffff" stroke-width="0"/><path d="M157.68883,339.26874l22.31117,-38.53748l22.31117,38.53748zM164.68642,335.21216h30.62716l-15.31358,-26.36775zM180,333.18387c0.57469,0 1.0564,-0.19438 1.44516,-0.58313c0.38875,-0.38875 0.58313,-0.87047 0.58313,-1.44516c0,-0.57469 -0.19438,-1.0564 -0.58313,-1.44516c-0.38875,-0.38875 -0.87047,-0.58313 -1.44516,-0.58313c-0.57469,0 -1.0564,0.19438 -1.44516,0.58313c-0.38875,0.38875 -0.58313,0.87047 -0.58313,1.44516c0,0.57469 0.19438,1.0564 0.58313,1.44516c0.38875,0.38875 0.87047,0.58313 1.44516,0.58313zM177.97171,327.09901h4.05658v-10.14144h-4.05658z" fill="#e8eaed" stroke-width="1"/><text transform="translate(180,251.05257) scale(0.5,0.5)" font-size="40" xml:space="preserve" fill="#e8eaed" fill-rule="nonzero" stroke="none" stroke-width="1" stroke-linecap="butt" stroke-linejoin="miter" stroke-miterlimit="10" stroke-dasharray="" stroke-dashoffset="0" font-family="&quot;Noir&quot;, Sans Serif" font-weight="normal" text-anchor="middle" style="mix-blend-mode: normal"><tspan x="0" dy="0">This prompt contains a</tspan><tspan x="0" dy="46.15px">swear word.</tspan></text><text transform="translate(180,374.94201) scale(0.5,0.5)" font-size="40" xml:space="preserve" fill="#e8eaed" fill-rule="nonzero" stroke="none" stroke-width="1" stroke-linecap="butt" stroke-linejoin="miter" stroke-miterlimit="10" stroke-dasharray="" stroke-dashoffset="0" font-family="&quot;Noir&quot;, Sans Serif" font-weight="normal" text-anchor="middle" style="mix-blend-mode: normal"><tspan x="0" dy="0">Tap this image to</tspan><tspan x="0" dy="46.15px">generate anyways.</tspan></text></g></g></svg>