<svg version="1.1" xmlns="http://www.w3.org/2000/svg" xmlns:xlink="http://www.w3.org/1999/xlink" width="86.08871" height="52.01613" viewBox="0,0,86.08871,52.01613"><defs><linearGradient x1="190.79417" y1="313.47276" x2="190.79417" y2="326.00641" gradientUnits="userSpaceOnUse" id="color-1"><stop offset="0" stop-color="#ffffff"/><stop offset="1" stop-color="#ffffff" stop-opacity="0"/></linearGradient></defs><g transform="translate(-132.67458,-291.99442)"><g data-paper-data="{&quot;isPaintingLayer&quot;:true}" fill-rule="nonzero" stroke="none" stroke-width="0" stroke-linecap="butt" stroke-linejoin="miter" stroke-miterlimit="10" stroke-dasharray="" stroke-dashoffset="0" style="mix-blend-mode: normal"><path d="M132.67459,344.01055v-52.01613h86.08871v52.01613z" fill="none"/><path d="M193.9113,319.92013c0,2.18265 -0.50266,4.24789 -1.39854,6.08629c-0.26572,-0.09531 -0.53738,-0.17813 -0.81429,-0.24775l-3.89511,-2.24885c-0.0382,-0.03256 -0.07668,-0.0648 -0.11544,-0.09671c0.48441,-1.06446 0.75425,-2.24721 0.75425,-3.49298c0,-1.25506 -0.27388,-2.44615 -0.76512,-3.51677l4.74997,-2.74239c-0.0318,-0.06301 -0.06406,-0.12574 -0.09679,-0.1882c0,0 0,0 0,0c1.00985,1.92732 1.58107,4.12063 1.58107,6.44737z" fill="url(#color-1)"/><path d="M166.08871,320c0,-7.68299 6.2283,-13.91129 13.91129,-13.91129c5.43166,0 10.13625,3.11296 12.42701,7.65213l-4.74997,2.74239c-1.3337,-2.90668 -4.26962,-4.92539 -7.67704,-4.92539c-4.66247,0 -8.44216,3.77968 -8.44216,8.44216c0,4.66247 3.77968,8.44216 8.44216,8.44216c1.01322,0 2.88487,-0.50576 2.88487,-0.50576l0.94468,5.44113c0,0 -2.50134,0.53376 -3.82955,0.53376c-7.68299,0 -13.91129,-6.2283 -13.91129,-13.91129z" fill="#ffffff"/></g></g></svg>