<svg version="1.1" xmlns="http://www.w3.org/2000/svg" xmlns:xlink="http://www.w3.org/1999/xlink" width="33.98969" height="34.2241" viewBox="0,0,33.98969,34.2241"><g transform="translate(-164.19208,-303.07713)"><g data-paper-data="{&quot;isPaintingLayer&quot;:true}" fill-rule="nonzero" stroke="none" stroke-linecap="butt" stroke-linejoin="miter" stroke-miterlimit="10" stroke-dasharray="" stroke-dashoffset="0" style="mix-blend-mode: normal"><path d="M180.00001,323.73312l-4.66639,-4.66639l1.30659,-1.35325l2.42652,2.42652v-7.60622h1.86656v7.60622l2.42652,-2.42652l1.30659,1.35325zM174.40034,327.46623c-0.5133,0 -0.95272,-0.18276 -1.31826,-0.5483c-0.36554,-0.36554 -0.5483,-0.80495 -0.5483,-1.31826v-2.79984h1.86656v2.79984h11.19935v-2.79984h1.86656v2.79984c0,0.5133 -0.18276,0.95272 -0.5483,1.31826c-0.36554,0.36554 -0.80495,0.5483 -1.31826,0.5483z" fill="#e8eaed" stroke-width="1"/><path d="M165.58369,320c0,-7.96191 6.4544,-14.41632 14.41632,-14.41632c7.96191,0 14.41632,6.4544 14.41632,14.41632c0,7.96191 -6.4544,14.41632 -14.41632,14.41632c-7.96191,0 -14.41632,-6.4544 -14.41632,-14.41632z" fill-opacity="0.25882" fill="#ffffff" stroke-width="0"/><path d="M164.19209,337.30123v-34.2241h33.98969v34.2241z" fill="none" stroke-width="0"/></g></g></svg>