<svg version="1.1" xmlns="http://www.w3.org/2000/svg" xmlns:xlink="http://www.w3.org/1999/xlink" width="254.38597" height="254.38597" viewBox="0,0,254.38597,254.38597"><g transform="translate(-57.33918,-193.96705)"><g data-paper-data="{&quot;isPaintingLayer&quot;:true}" fill-rule="nonzero" stroke="none" stroke-linecap="butt" stroke-linejoin="miter" stroke-miterlimit="10" stroke-dasharray="" stroke-dashoffset="0" style="mix-blend-mode: normal"><path d="M57.33918,448.35302v-254.38597h254.38597v254.38597z" fill-opacity="0.25882" fill="#ffffff" stroke-width="0"/><path d="M157.83864,348.49318c-1.74125,0 -3.23187,-0.61999 -4.47185,-1.85997c-1.23998,-1.23998 -1.85997,-2.7306 -1.85997,-4.47185v-44.32272c0,-1.74125 0.61999,-3.23186 1.85997,-4.47185c1.23998,-1.23998 2.7306,-1.85997 4.47185,-1.85997h44.32272c1.74125,0 3.23186,0.61999 4.47185,1.85997c1.23998,1.23998 1.85997,2.7306 1.85997,4.47185v44.32272c0,1.74125 -0.61999,3.23187 -1.85997,4.47185c-1.23998,1.23998 -2.7306,1.85997 -4.47185,1.85997zM161.00455,321.8204l12.66363,-12.66363l12.66363,12.66363l12.66364,-12.66363l3.16591,3.16591v-14.48403h-44.32272v20.81585zM157.83864,342.16136h44.32272v-20.895l-3.16591,-3.16591l-12.66364,12.66363l-12.66363,-12.66363l-12.66363,12.66363l-3.16591,-3.16591zM157.83864,342.16136v-20.895v6.33182v-29.75954z" fill="#e8eaed" stroke-width="1"/></g></g></svg>