<svg version="1.1" xmlns="http://www.w3.org/2000/svg" xmlns:xlink="http://www.w3.org/1999/xlink" width="283.95724" height="369.51722" viewBox="0,0,283.95724,369.51722"><g transform="translate(-39.08574,-195.42707)"><g data-paper-data="{&quot;isPaintingLayer&quot;:true}" fill-rule="nonzero" stroke="none" stroke-width="1" stroke-linecap="butt" stroke-linejoin="miter" stroke-miterlimit="10" stroke-dasharray="" stroke-dashoffset="0" style="mix-blend-mode: normal"><text transform="translate(39.64792,229.88872) scale(1.12436,1.12436)" font-size="40" xml:space="preserve" fill="#ffffff" fill-rule="nonzero" stroke="none" stroke-width="1" stroke-linecap="butt" stroke-linejoin="miter" stroke-miterlimit="10" stroke-dasharray="" stroke-dashoffset="0" font-family="&quot;Noir&quot;, Sans Serif" font-weight="normal" text-anchor="start" style="mix-blend-mode: normal"><tspan x="0" dy="0">Loading Error.</tspan></text><path d="M107.43844,382.6668l72.56156,-125.33361l72.56156,125.33361zM130.19638,369.47379h99.60723l-49.80362,-85.75457zM180,362.87729c1.86902,0 3.43569,-0.63218 4.70001,-1.8965c1.26432,-1.26432 1.8965,-2.83099 1.8965,-4.70001c0,-1.86902 -0.63218,-3.43569 -1.8965,-4.70001c-1.26432,-1.26432 -2.83099,-1.8965 -4.70001,-1.8965c-1.86902,0 -3.43569,0.63218 -4.70001,1.8965c-1.26432,1.26432 -1.8965,2.83099 -1.8965,4.70001c0,1.86902 0.63218,3.43569 1.8965,4.70001c1.26432,1.26432 2.83099,1.8965 4.70001,1.8965zM173.40349,343.08777h13.19301v-32.98253h-13.19301z" fill="#e8eaed"/><text transform="translate(180,435.54489) scale(0.80198,0.80198)" font-size="40" xml:space="preserve" fill="#ffffff" fill-rule="nonzero" stroke="none" stroke-width="1" stroke-linecap="butt" stroke-linejoin="miter" stroke-miterlimit="10" stroke-dasharray="" stroke-dashoffset="0" font-family="&quot;Noir&quot;, Sans Serif" font-weight="normal" text-anchor="middle" style="mix-blend-mode: normal"><tspan x="0" dy="0">Every model failed</tspan><tspan x="0" dy="48px">to load initially,</tspan><tspan x="0" dy="48px">please refresh to</tspan><tspan x="0" dy="48px">continue.</tspan></text></g></g></svg>