<svg version="1.1" xmlns="http://www.w3.org/2000/svg" xmlns:xlink="http://www.w3.org/1999/xlink" width="824.29429" height="1286.27627" viewBox="0,0,824.29429,1286.27627"><defs><radialGradient cx="310.36037" cy="81.56158" r="389.87988" gradientUnits="userSpaceOnUse" id="color-1"><stop offset="0" stop-color="#faff00" stop-opacity="0.25882"/><stop offset="1" stop-color="#faff00" stop-opacity="0"/></radialGradient><radialGradient cx="265.82584" cy="588.07809" r="389.87988" gradientUnits="userSpaceOnUse" id="color-2"><stop offset="0" stop-color="#3a5acf" stop-opacity="0.25882"/><stop offset="1" stop-color="#3a5acf" stop-opacity="0"/></radialGradient></defs><g transform="translate(124.05404,308.3183)"><g data-paper-data="{&quot;isPaintingLayer&quot;:true}" fill-rule="nonzero" stroke="none" stroke-width="0" stroke-linecap="butt" stroke-linejoin="miter" stroke-miterlimit="10" stroke-dasharray="" stroke-dashoffset="0" style="mix-blend-mode: normal"><path d="M-79.5195,81.56158c0,-215.32471 174.55517,-389.87988 389.87988,-389.87988c215.32471,0 389.87988,174.55517 389.87988,389.87988c0,215.32471 -174.55517,389.87988 -389.87988,389.87988c-215.32471,0 -389.87988,-174.55517 -389.87988,-389.87988z" fill="url(#color-1)"/><path d="M-124.05403,588.07809c0,-215.32471 174.55517,-389.87988 389.87988,-389.87988c215.32471,0 389.87988,174.55517 389.87988,389.87988c0,215.32471 -174.55517,389.87988 -389.87988,389.87988c-215.32471,0 -389.87988,-174.55517 -389.87988,-389.87988z" fill="url(#color-2)"/></g></g></svg>